<svg width="40" height="30" viewBox="0 0 40 30" fill="none" xmlns="http://www.w3.org/2000/svg">
<path d="M0 2C0 0.89543 0.89543 0 2 0H38C39.1046 0 40 0.89543 40 2V28C40 29.1046 39.1046 30 38 30H2C0.89543 30 0 29.1046 0 28V2Z" fill="url(#paint0_linear_201_2)"/>
<path fill-rule="evenodd" clip-rule="evenodd" d="M0 27V28C0 29.1046 0.89543 30 2 30V29C0.89543 29 0 28.1046 0 27ZM2 30H38C39.1046 30 40 29.1046 40 28V27C40 28.1046 39.1046 29 38 29H2V30Z" fill="#031C5A" fill-opacity="0.1"/>
<circle cx="7" cy="8" r="2" fill="#232629" fill-opacity="0.5"/>
<circle cx="7" cy="8" r="2.5" stroke="#232629" stroke-opacity="0.1"/>
<circle cx="7" cy="22" r="2" fill="#232629"/>
<circle cx="7" cy="22" r="2.5" stroke="#232629" stroke-opacity="0.1"/>
<circle cx="7" cy="15" r="2" fill="#232629"/>
<circle cx="7" cy="15" r="2.5" stroke="#232629" stroke-opacity="0.1"/>
<path d="M12 21.4223C12.3652 21.662 12.6964 21.6765 13.1154 21.5866C13.2609 21.5554 13.4096 21.5371 13.5516 21.4877C13.7091 21.4329 13.8524 21.3331 14.0053 21.264C14.5741 21.0069 15.0761 20.6089 15.6508 20.3632C15.9897 20.2183 16.3058 20.1488 16.6628 20.1623C16.8652 20.17 16.9017 20.4121 16.9017 20.6021C16.9017 20.9232 16.7884 21.2417 16.9286 21.5471C17.0213 21.7491 17.2478 21.6962 17.4144 21.6962C17.7232 21.6962 17.999 21.6825 18.2949 21.5684C18.6275 21.4401 18.9133 21.202 19.2103 20.9962C19.9041 20.5155 20.6752 20.2441 21.4625 20.0497C21.5595 20.0258 22.0486 19.9129 22.0732 20.1364C22.0981 20.3616 21.8642 20.6388 21.7363 20.774C21.6408 20.8751 21.4584 20.96 21.3914 21.0951C21.3154 21.2483 21.6824 21.4209 21.7525 21.4436C22.5985 21.7176 23.4951 21.2334 24.2516 20.8532C24.7858 20.5847 25.2741 20.3541 25.8703 20.3997C25.9766 20.4078 26.7144 20.4147 26.7334 20.6295C26.7664 21.0043 25.7135 21.2825 26.2019 21.6338C27.0014 22.2089 27.8318 21.8472 28.5762 21.3903C29.0532 21.0976 29.5945 20.9426 30.1265 20.8349C30.3557 20.7885 30.5874 20.7502 30.8204 20.7406C30.9388 20.7357 31.3115 20.6659 31.3546 20.8532C31.4168 21.124 31.3178 21.438 31.368 21.7175C31.4229 22.023 31.7036 22.0231 31.9264 21.9792C32.2108 21.9232 32.1532 21.7394 32.125 21.4649C32.1068 21.2872 32.0756 21.057 32.1626 20.8942C32.2519 20.7271 32.4528 20.7647 32.5921 20.8045C33.1086 20.9518 33.5694 21.311 34.0457 21.5684C34.3548 21.7353 34.6832 21.8538 35 21.9975" stroke="black" stroke-linecap="round"/>
<path d="M12 14.4223C12.3652 14.662 12.6964 14.6765 13.1154 14.5866C13.2609 14.5554 13.4096 14.5371 13.5516 14.4877C13.7091 14.4329 13.8524 14.3331 14.0053 14.264C14.5741 14.0069 15.0761 13.6089 15.6508 13.3632C15.9897 13.2183 16.3058 13.1488 16.6628 13.1623C16.8652 13.17 16.9017 13.4121 16.9017 13.6021C16.9017 13.9232 16.7884 14.2417 16.9286 14.5471C17.0213 14.7491 17.2478 14.6962 17.4144 14.6962C17.7232 14.6962 17.999 14.6825 18.2949 14.5684C18.6275 14.4401 18.9133 14.202 19.2103 13.9962C19.9041 13.5155 20.6752 13.2441 21.4625 13.0497C21.5595 13.0258 22.0486 12.9129 22.0732 13.1364C22.0981 13.3616 21.8642 13.6388 21.7363 13.774C21.6408 13.8751 21.4584 13.96 21.3914 14.0951C21.3154 14.2483 21.6824 14.4209 21.7525 14.4436C22.5985 14.7176 23.4951 14.2334 24.2516 13.8532C24.7858 13.5847 25.2741 13.3541 25.8703 13.3997C25.9766 13.4078 26.7144 13.4147 26.7334 13.6295C26.7664 14.0043 25.7135 14.2825 26.2019 14.6338C27.0014 15.2089 27.8318 14.8472 28.5762 14.3903C29.0532 14.0976 29.5945 13.9426 30.1265 13.8349C30.3557 13.7885 30.5874 13.7502 30.8204 13.7406C30.9388 13.7357 31.3115 13.6659 31.3546 13.8532C31.4168 14.124 31.3178 14.438 31.368 14.7175C31.4229 15.023 31.7036 15.0231 31.9264 14.9792C32.2108 14.9232 32.1532 14.7394 32.125 14.4649C32.1068 14.2872 32.0756 14.057 32.1626 13.8942C32.2519 13.7271 32.4528 13.7647 32.5921 13.8045C33.1086 13.9518 33.5694 14.311 34.0457 14.5684C34.3548 14.7353 34.6832 14.8538 35 14.9975" stroke="black" stroke-linecap="round"/>
<path d="M12 8.42229C12.3652 8.662 12.6964 8.67649 13.1154 8.58663C13.2609 8.55543 13.4096 8.53708 13.5516 8.48772C13.7091 8.43294 13.8524 8.33312 14.0053 8.26403C14.5741 8.00688 15.0761 7.6089 15.6508 7.36317C15.9897 7.21827 16.3058 7.14881 16.6628 7.1623C16.8652 7.16995 16.9017 7.41207 16.9017 7.60208C16.9017 7.9232 16.7884 8.24168 16.9286 8.54707C17.0213 8.74911 17.2478 8.69619 17.4144 8.69619C17.7232 8.69619 17.999 8.6825 18.2949 8.56837C18.6275 8.4401 18.9133 8.20202 19.2103 7.9962C19.9041 7.51553 20.6752 7.24409 21.4625 7.0497C21.5595 7.02575 22.0486 6.91288 22.0732 7.13643C22.0981 7.36157 21.8642 7.63878 21.7363 7.77403C21.6408 7.8751 21.4584 7.96004 21.3914 8.09512C21.3154 8.24831 21.6824 8.42089 21.7525 8.44359C22.5985 8.71764 23.4951 8.23339 24.2516 7.85316C24.7858 7.5847 25.2741 7.35407 25.8703 7.39969C25.9766 7.40782 26.7144 7.41472 26.7334 7.62947C26.7664 8.00431 25.7135 8.28254 26.2019 8.6338C27.0014 9.2089 27.8318 8.84722 28.5762 8.39033C29.0532 8.09759 29.5945 7.94259 30.1265 7.8349C30.3557 7.78849 30.5874 7.75016 30.8204 7.74056C30.9388 7.73567 31.3115 7.66586 31.3546 7.85316C31.4168 8.12399 31.3178 8.438 31.368 8.7175C31.4229 9.023 31.7036 9.02307 31.9264 8.97923C32.2108 8.92324 32.1532 8.73943 32.125 8.46489C32.1068 8.28719 32.0756 8.05699 32.1626 7.89425C32.2519 7.72714 32.4528 7.76472 32.5921 7.80447C33.1086 7.95184 33.5694 8.31103 34.0457 8.56837C34.3548 8.73535 34.6832 8.85383 35 8.99749" stroke="black" stroke-opacity="0.5" stroke-linecap="round"/>
<path d="M3 8H37" stroke="#4B4B4B" stroke-width="0.5"/>
<defs>
<linearGradient id="paint0_linear_201_2" x1="3.5" y1="-1.93715e-06" x2="43.5" y2="40" gradientUnits="userSpaceOnUse">
<stop stop-color="#FFFEF2"/>
<stop offset="1" stop-color="#F5F4E0"/>
</linearGradient>
</defs>
</svg>
