<svg width="32" height="32" viewBox="0 0 32 32" fill="none" xmlns="http://www.w3.org/2000/svg">
<rect x="8" y="9" width="22" height="18" rx="1" fill="#F4F3E2"/>
<path d="M9 10.7077C9.09411 10.6648 9.32569 10.496 9.44178 10.5324C9.52374 10.5581 9.50196 10.7497 9.50782 10.8148C9.51619 10.9078 9.49396 11.0725 9.5693 11.145C9.65091 11.2234 9.88526 11.089 9.95415 11.055C10.2594 10.9046 10.5033 10.6727 10.8001 10.5107C11.0888 10.3533 11.4051 10.2157 11.7178 10.1157C11.7364 10.1097 12.1045 9.97896 12.1141 10.0029C12.1576 10.1117 12.1117 10.3256 12.0947 10.4367C12.0801 10.5327 11.9231 11.0224 12.138 11.0356C12.7187 11.0714 13.1987 10.8521 13.6808 10.546C13.9516 10.3741 14.3095 10.2771 14.6361 10.3206C14.932 10.3601 14.8037 10.7263 14.8 10.9332C14.799 10.9919 14.7911 11.0736 14.8684 11.0766C15.1488 11.0876 15.4168 11.0407 15.6813 10.9491C16.2825 10.741 16.8207 10.3893 17.4279 10.1988C17.6193 10.1387 17.6468 10.2233 17.576 10.4003C17.5078 10.5706 17.2428 11.0161 17.4086 11.1985C17.5332 11.3355 17.9204 11.1977 18.0473 11.1427C18.3538 11.0098 18.6435 10.8214 18.9241 10.6417C19.3242 10.3854 19.6644 10.2565 20.1447 10.3457C20.2476 10.3648 20.5142 10.3958 20.5386 10.5369C20.5558 10.6363 20.5072 10.766 20.4771 10.858C20.4612 10.9068 20.3465 11.2057 20.4407 11.2451C20.5432 11.2881 20.7076 11.2102 20.8028 11.1791C20.9438 11.1331 21.0835 11.0871 21.2127 11.0129C21.4301 10.8879 21.6334 10.7389 21.8469 10.6075C21.9402 10.5501 22.0806 10.4804 22.1885 10.546C22.3486 10.6436 22.2453 11.057 22.2283 11.2064C22.2176 11.3 22.1598 11.5049 22.2169 11.5936C22.3335 11.7746 22.7138 11.6288 22.8523 11.5708C23.2298 11.4127 23.5297 11.1564 23.8838 10.9628C24.0172 10.8898 24.1509 10.8225 24.2801 10.7419C24.3018 10.7283 24.4106 10.6386 24.444 10.6599C24.6441 10.7872 24.2518 11.5569 24.5556 11.507C24.8539 11.4581 25.1377 11.2139 25.3663 11.0345C25.5212 10.9129 25.6735 10.7868 25.8388 10.6793C25.9572 10.6023 26.1391 10.4555 26.284 10.4345C26.3791 10.4206 26.3578 10.8155 26.3592 10.8671C26.3621 10.981 26.4119 11.0713 26.4366 11.1791C26.4535 11.2532 26.4761 11.2984 26.5504 11.2064C26.6513 11.0817 26.6461 10.9346 26.6461 10.784C26.6461 10.6485 26.7237 10.692 26.7679 10.7988C26.863 11.0285 26.8634 11.2877 26.982 11.5093C27.1835 11.8861 27.8681 10.7026 27.9578 10.5734C27.9694 10.5566 28.111 10.3294 28.1536 10.3548C28.2221 10.3955 28.233 10.6967 28.2492 10.7624C28.3118 11.0147 28.366 11.159 28.6318 11.129" stroke="black" stroke-opacity="0.5" stroke-width="0.5" stroke-linecap="round"/>
<path d="M9 13.7077C9.09411 13.6648 9.32569 13.496 9.44178 13.5324C9.52374 13.5581 9.50196 13.7497 9.50782 13.8148C9.51619 13.9078 9.49396 14.0725 9.5693 14.145C9.65091 14.2234 9.88526 14.089 9.95415 14.055C10.2594 13.9046 10.5033 13.6727 10.8001 13.5107C11.0888 13.3533 11.4051 13.2157 11.7178 13.1157C11.7364 13.1097 12.1045 12.979 12.1141 13.0029C12.1576 13.1117 12.1117 13.3256 12.0947 13.4367C12.0801 13.5327 11.9231 14.0224 12.138 14.0356C12.7187 14.0714 13.1987 13.8521 13.6808 13.546C13.9516 13.3741 14.3095 13.2771 14.6361 13.3206C14.932 13.3601 14.8037 13.7263 14.8 13.9332C14.799 13.9919 14.7911 14.0736 14.8684 14.0766C15.1488 14.0876 15.4168 14.0407 15.6813 13.9491C16.2825 13.741 16.8207 13.3893 17.4279 13.1988C17.6193 13.1387 17.6468 13.2233 17.576 13.4003C17.5078 13.5706 17.2428 14.0161 17.4086 14.1985C17.5332 14.3355 17.9204 14.1977 18.0473 14.1427C18.3538 14.0098 18.6435 13.8214 18.9241 13.6417C19.3242 13.3854 19.6644 13.2565 20.1447 13.3457C20.2476 13.3648 20.5142 13.3958 20.5386 13.5369C20.5558 13.6363 20.5072 13.766 20.4771 13.858C20.4612 13.9068 20.3465 14.2057 20.4407 14.2451C20.5432 14.2881 20.7076 14.2102 20.8028 14.1791C20.9438 14.1331 21.0835 14.0871 21.2127 14.0129C21.4301 13.8879 21.6334 13.7389 21.8469 13.6075C21.9402 13.5501 22.0806 13.4804 22.1885 13.546C22.3486 13.6436 22.2453 14.057 22.2283 14.2064C22.2176 14.3 22.1598 14.5049 22.2169 14.5936C22.3335 14.7746 22.7138 14.6288 22.8523 14.5708C23.2298 14.4127 23.5297 14.1564 23.8838 13.9628C24.0172 13.8898 24.1509 13.8225 24.2801 13.7419C24.3018 13.7283 24.4106 13.6386 24.444 13.6599C24.6441 13.7872 24.2518 14.5569 24.5556 14.507C24.8539 14.4581 25.1377 14.2139 25.3663 14.0345C25.5212 13.9129 25.6735 13.7868 25.8388 13.6793C25.9572 13.6023 26.1391 13.4555 26.284 13.4345C26.3791 13.4206 26.3578 13.8155 26.3592 13.8671C26.3621 13.981 26.4119 14.0713 26.4366 14.1791C26.4535 14.2532 26.4761 14.2984 26.5504 14.2064C26.6513 14.0817 26.6461 13.9346 26.6461 13.784C26.6461 13.6485 26.7237 13.692 26.7679 13.7988C26.863 14.0285 26.8634 14.2877 26.982 14.5093C27.1835 14.8861 27.8681 13.7026 27.9578 13.5734C27.9694 13.5566 28.111 13.3294 28.1536 13.3548C28.2221 13.3955 28.233 13.6967 28.2492 13.7624C28.3118 14.0147 28.366 14.159 28.6318 14.129" stroke="black" stroke-opacity="0.5" stroke-width="0.5" stroke-linecap="round"/>
<path d="M9 16.7077C9.09411 16.6648 9.32569 16.496 9.44178 16.5324C9.52374 16.5581 9.50196 16.7497 9.50782 16.8148C9.51619 16.9078 9.49396 17.0725 9.5693 17.145C9.65091 17.2234 9.88526 17.089 9.95415 17.055C10.2594 16.9046 10.5033 16.6727 10.8001 16.5107C11.0888 16.3533 11.4051 16.2157 11.7178 16.1157C11.7364 16.1097 12.1045 15.979 12.1141 16.0029C12.1576 16.1117 12.1117 16.3256 12.0947 16.4367C12.0801 16.5327 11.9231 17.0224 12.138 17.0356C12.7187 17.0714 13.1987 16.8521 13.6808 16.546C13.9516 16.3741 14.3095 16.2771 14.6361 16.3206C14.932 16.3601 14.8037 16.7263 14.8 16.9332C14.799 16.9919 14.7911 17.0736 14.8684 17.0766C15.1488 17.0876 15.4168 17.0407 15.6813 16.9491C16.2825 16.741 16.8207 16.3893 17.4279 16.1988C17.6193 16.1387 17.6468 16.2233 17.576 16.4003C17.5078 16.5706 17.2428 17.0161 17.4086 17.1985C17.5332 17.3355 17.9204 17.1977 18.0473 17.1427C18.3538 17.0098 18.6435 16.8214 18.9241 16.6417C19.3242 16.3854 19.6644 16.2565 20.1447 16.3457C20.2476 16.3648 20.5142 16.3958 20.5386 16.5369C20.5558 16.6363 20.5072 16.766 20.4771 16.858C20.4612 16.9068 20.3465 17.2057 20.4407 17.2451C20.5432 17.2881 20.7076 17.2102 20.8028 17.1791C20.9438 17.1331 21.0835 17.0871 21.2127 17.0129C21.4301 16.8879 21.6334 16.7389 21.8469 16.6075C21.9402 16.5501 22.0806 16.4804 22.1885 16.546C22.3486 16.6436 22.2453 17.057 22.2283 17.2064C22.2176 17.3 22.1598 17.5049 22.2169 17.5936C22.3335 17.7746 22.7138 17.6288 22.8523 17.5708C23.2298 17.4127 23.5297 17.1564 23.8838 16.9628C24.0172 16.8898 24.1509 16.8225 24.2801 16.7419C24.3018 16.7283 24.4106 16.6386 24.444 16.6599C24.6441 16.7872 24.2518 17.5569 24.5556 17.507C24.8539 17.4581 25.1377 17.2139 25.3663 17.0345C25.5212 16.9129 25.6735 16.7868 25.8388 16.6793C25.9572 16.6023 26.1391 16.4555 26.284 16.4345C26.3791 16.4206 26.3578 16.8155 26.3592 16.8671C26.3621 16.981 26.4119 17.0713 26.4366 17.1791C26.4535 17.2532 26.4761 17.2984 26.5504 17.2064C26.6513 17.0817 26.6461 16.9346 26.6461 16.784C26.6461 16.6485 26.7237 16.692 26.7679 16.7988C26.863 17.0285 26.8634 17.2877 26.982 17.5093C27.1835 17.8861 27.8681 16.7026 27.9578 16.5734C27.9694 16.5566 28.111 16.3294 28.1536 16.3548C28.2221 16.3955 28.233 16.6967 28.2492 16.7624C28.3118 17.0147 28.366 17.159 28.6318 17.129" stroke="black" stroke-opacity="0.5" stroke-width="0.5" stroke-linecap="round"/>
<path opacity="0.3" d="M8 11V10C8 9.446 8.35043 9 8.78571 9H29.2143C29.6496 9 30 9.446 30 10V11C30 10.446 29.6496 10 29.2143 10H8.78571C8.35043 10 8 10.446 8 11Z" fill="white"/>
<rect x="2" y="5" width="22" height="18" rx="1" fill="#FFFEF2"/>
<path opacity="0.3" d="M8 25V26C8 26.554 8.35043 27 8.78571 27H29.2143C29.6496 27 30 26.554 30 26V25C30 25.554 29.6496 26 29.2143 26H8.78571C8.35043 26 8 25.554 8 25Z" fill="black"/>
<path opacity="0.3" d="M2 21V22C2 22.554 2.35043 23 2.78571 23H23.2143C23.6496 23 24 22.554 24 22V21C24 21.554 23.6496 22 23.2143 22H2.78571C2.35043 22 2 21.554 2 21Z" fill="black"/>
<path opacity="0.3" d="M2 7V6C2 5.446 2.35043 5 2.78571 5H23.2143C23.6496 5 24 5.446 24 6V7C24 6.446 23.6496 6 23.2143 6H2.78571C2.35043 6 2 6.446 2 7Z" fill="white"/>
<path d="M3 7.70773C3.09411 7.66476 3.32569 7.49596 3.44178 7.53238C3.52374 7.5581 3.50196 7.74965 3.50782 7.81476C3.51619 7.90776 3.49396 8.0725 3.5693 8.14495C3.65091 8.22342 3.88526 8.08895 3.95415 8.055C4.25939 7.90459 4.50327 7.67267 4.80013 7.51075C5.08881 7.35329 5.40508 7.21574 5.71785 7.11565C5.73644 7.1097 6.10449 6.97896 6.11408 7.00293C6.15761 7.11174 6.11169 7.32556 6.09473 7.43674C6.08008 7.53273 5.92315 8.02242 6.13799 8.03565C6.71874 8.07138 7.19873 7.85212 7.6808 7.54605C7.95157 7.37413 8.3095 7.27706 8.63609 7.3206C8.93198 7.36005 8.80368 7.72627 8.80005 7.93317C8.79902 7.9919 8.79113 8.07363 8.86837 8.07664C9.14876 8.08756 9.41676 8.04069 9.68133 7.94911C10.2825 7.74103 10.8207 7.38929 11.4279 7.19877C11.6193 7.13873 11.6468 7.22331 11.576 7.4003C11.5078 7.57064 11.2428 8.01611 11.4086 8.19847C11.5332 8.33553 11.9204 8.19774 12.0473 8.14267C12.3538 8.00979 12.6435 7.82139 12.9241 7.64169C13.3242 7.38542 13.6644 7.25646 14.1447 7.34565C14.2476 7.36476 14.5142 7.39579 14.5386 7.53694C14.5558 7.6363 14.5072 7.76599 14.4771 7.85802C14.4612 7.90685 14.3465 8.20565 14.4407 8.24515C14.5432 8.28814 14.7076 8.2102 14.8028 8.17911C14.9438 8.13307 15.0835 8.08712 15.2127 8.01287C15.4301 7.88788 15.6334 7.73893 15.8469 7.60753C15.9402 7.55007 16.0806 7.48038 16.1885 7.54605C16.3486 7.64356 16.2453 8.05703 16.2283 8.20644C16.2176 8.30001 16.1598 8.50487 16.2169 8.59356C16.3335 8.77458 16.7138 8.62876 16.8523 8.57079C17.2298 8.41273 17.5297 8.15643 17.8838 7.96277C18.0172 7.88984 18.1509 7.82247 18.2801 7.74189C18.3018 7.72829 18.4106 7.63865 18.444 7.65991C18.6441 7.78723 18.2518 8.5569 18.5556 8.50703C18.8539 8.45806 19.1377 8.21394 19.3663 8.03451C19.5212 7.9129 19.6735 7.78679 19.8388 7.67926C19.9572 7.60228 20.1391 7.45554 20.284 7.43446C20.3791 7.42063 20.3578 7.81554 20.3592 7.86713C20.3621 7.98101 20.4119 8.0713 20.4366 8.17911C20.4535 8.25319 20.4761 8.29841 20.5504 8.20644C20.6513 8.08167 20.6461 7.93464 20.6461 7.78401C20.6461 7.64852 20.7237 7.69205 20.7679 7.79882C20.863 8.02852 20.8634 8.28771 20.982 8.50931C21.1835 8.88613 21.8681 7.70259 21.9578 7.57337C21.9694 7.55659 22.111 7.32941 22.1536 7.35476C22.2221 7.39552 22.233 7.69674 22.2492 7.76238C22.3118 8.01466 22.366 8.15902 22.6318 8.12901" stroke="black" stroke-width="0.5" stroke-linecap="round"/>
<path d="M3 10.7077C3.09411 10.6648 3.32569 10.496 3.44178 10.5324C3.52374 10.5581 3.50196 10.7497 3.50782 10.8148C3.51619 10.9078 3.49396 11.0725 3.5693 11.145C3.65091 11.2234 3.88526 11.089 3.95415 11.055C4.25939 10.9046 4.50327 10.6727 4.80013 10.5107C5.08881 10.3533 5.40508 10.2157 5.71785 10.1157C5.73644 10.1097 6.10449 9.97896 6.11408 10.0029C6.15761 10.1117 6.11169 10.3256 6.09473 10.4367C6.08008 10.5327 5.92315 11.0224 6.13799 11.0356C6.71874 11.0714 7.19873 10.8521 7.6808 10.546C7.95157 10.3741 8.3095 10.2771 8.63609 10.3206C8.93198 10.3601 8.80368 10.7263 8.80005 10.9332C8.79902 10.9919 8.79113 11.0736 8.86837 11.0766C9.14876 11.0876 9.41676 11.0407 9.68133 10.9491C10.2825 10.741 10.8207 10.3893 11.4279 10.1988C11.6193 10.1387 11.6468 10.2233 11.576 10.4003C11.5078 10.5706 11.2428 11.0161 11.4086 11.1985C11.5332 11.3355 11.9204 11.1977 12.0473 11.1427C12.3538 11.0098 12.6435 10.8214 12.9241 10.6417C13.3242 10.3854 13.6644 10.2565 14.1447 10.3457C14.2476 10.3648 14.5142 10.3958 14.5386 10.5369C14.5558 10.6363 14.5072 10.766 14.4771 10.858C14.4612 10.9068 14.3465 11.2057 14.4407 11.2451C14.5432 11.2881 14.7076 11.2102 14.8028 11.1791C14.9438 11.1331 15.0835 11.0871 15.2127 11.0129C15.4301 10.8879 15.6334 10.7389 15.8469 10.6075C15.9402 10.5501 16.0806 10.4804 16.1885 10.546C16.3486 10.6436 16.2453 11.057 16.2283 11.2064C16.2176 11.3 16.1598 11.5049 16.2169 11.5936C16.3335 11.7746 16.7138 11.6288 16.8523 11.5708C17.2298 11.4127 17.5297 11.1564 17.8838 10.9628C18.0172 10.8898 18.1509 10.8225 18.2801 10.7419C18.3018 10.7283 18.4106 10.6386 18.444 10.6599C18.6441 10.7872 18.2518 11.5569 18.5556 11.507C18.8539 11.4581 19.1377 11.2139 19.3663 11.0345C19.5212 10.9129 19.6735 10.7868 19.8388 10.6793C19.9572 10.6023 20.1391 10.4555 20.284 10.4345C20.3791 10.4206 20.3578 10.8155 20.3592 10.8671C20.3621 10.981 20.4119 11.0713 20.4366 11.1791C20.4535 11.2532 20.4761 11.2984 20.5504 11.2064C20.6513 11.0817 20.6461 10.9346 20.6461 10.784C20.6461 10.6485 20.7237 10.692 20.7679 10.7988C20.863 11.0285 20.8634 11.2877 20.982 11.5093C21.1835 11.8861 21.8681 10.7026 21.9578 10.5734C21.9694 10.5566 22.111 10.3294 22.1536 10.3548C22.2221 10.3955 22.233 10.6967 22.2492 10.7624C22.3118 11.0147 22.366 11.159 22.6318 11.129" stroke="black" stroke-width="0.5" stroke-linecap="round"/>
<path d="M3 13.7077C3.09411 13.6648 3.32569 13.496 3.44178 13.5324C3.52374 13.5581 3.50196 13.7497 3.50782 13.8148C3.51619 13.9078 3.49396 14.0725 3.5693 14.145C3.65091 14.2234 3.88526 14.089 3.95415 14.055C4.25939 13.9046 4.50327 13.6727 4.80013 13.5107C5.08881 13.3533 5.40508 13.2157 5.71785 13.1157C5.73644 13.1097 6.10449 12.979 6.11408 13.0029C6.15761 13.1117 6.11169 13.3256 6.09473 13.4367C6.08008 13.5327 5.92315 14.0224 6.13799 14.0356C6.71874 14.0714 7.19873 13.8521 7.6808 13.546C7.95157 13.3741 8.3095 13.2771 8.63609 13.3206C8.93198 13.3601 8.80368 13.7263 8.80005 13.9332C8.79902 13.9919 8.79113 14.0736 8.86837 14.0766C9.14876 14.0876 9.41676 14.0407 9.68133 13.9491C10.2825 13.741 10.8207 13.3893 11.4279 13.1988C11.6193 13.1387 11.6468 13.2233 11.576 13.4003C11.5078 13.5706 11.2428 14.0161 11.4086 14.1985C11.5332 14.3355 11.9204 14.1977 12.0473 14.1427C12.3538 14.0098 12.6435 13.8214 12.9241 13.6417C13.3242 13.3854 13.6644 13.2565 14.1447 13.3457C14.2476 13.3648 14.5142 13.3958 14.5386 13.5369C14.5558 13.6363 14.5072 13.766 14.4771 13.858C14.4612 13.9068 14.3465 14.2057 14.4407 14.2451C14.5432 14.2881 14.7076 14.2102 14.8028 14.1791C14.9438 14.1331 15.0835 14.0871 15.2127 14.0129C15.4301 13.8879 15.6334 13.7389 15.8469 13.6075C15.9402 13.5501 16.0806 13.4804 16.1885 13.546C16.3486 13.6436 16.2453 14.057 16.2283 14.2064C16.2176 14.3 16.1598 14.5049 16.2169 14.5936C16.3335 14.7746 16.7138 14.6288 16.8523 14.5708C17.2298 14.4127 17.5297 14.1564 17.8838 13.9628C18.0172 13.8898 18.1509 13.8225 18.2801 13.7419C18.3018 13.7283 18.4106 13.6386 18.444 13.6599C18.6441 13.7872 18.2518 14.5569 18.5556 14.507C18.8539 14.4581 19.1377 14.2139 19.3663 14.0345C19.5212 13.9129 19.6735 13.7868 19.8388 13.6793C19.9572 13.6023 20.1391 13.4555 20.284 13.4345C20.3791 13.4206 20.3578 13.8155 20.3592 13.8671C20.3621 13.981 20.4119 14.0713 20.4366 14.1791C20.4535 14.2532 20.4761 14.2984 20.5504 14.2064C20.6513 14.0817 20.6461 13.9346 20.6461 13.784C20.6461 13.6485 20.7237 13.692 20.7679 13.7988C20.863 14.0285 20.8634 14.2877 20.982 14.5093C21.1835 14.8861 21.8681 13.7026 21.9578 13.5734C21.9694 13.5566 22.111 13.3294 22.1536 13.3548C22.2221 13.3955 22.233 13.6967 22.2492 13.7624C22.3118 14.0147 22.366 14.159 22.6318 14.129" stroke="black" stroke-width="0.5" stroke-linecap="round"/>
</svg>
